<?xml version="1.0" encoding="utf-8"?>
<!-- Generator: Adobe Illustrator 19.1.0, SVG Export Plug-In . SVG Version: 6.00 Build 0)  -->
<svg version="1.1" id="Warstwa_1" xmlns="http://www.w3.org/2000/svg" xmlns:xlink="http://www.w3.org/1999/xlink" x="0px" y="0px"
	 viewBox="0 0 381.1 382.7" style="enable-background:new 0 0 381.1 382.7;" xml:space="preserve">
<style type="text/css">
	.st0{stroke:#000000;stroke-miterlimit:10;}
	.st1{fill:#FFFFFF;}
	.st2{fill:#FFF3A5;}
	.st3{fill:none;stroke:url(#SVGID_1_);stroke-width:0.9272;stroke-miterlimit:10;}
	.st4{fill:none;stroke:url(#SVGID_2_);stroke-width:0.9272;stroke-miterlimit:10;}
	.st5{fill:none;stroke:url(#SVGID_3_);stroke-width:0.9272;stroke-miterlimit:10;}
	.st6{fill:none;stroke:url(#SVGID_4_);stroke-width:0.9272;stroke-miterlimit:10;}
	.st7{fill:none;stroke:url(#SVGID_5_);stroke-width:0.9272;stroke-miterlimit:10;}
	.st8{fill:none;stroke:url(#SVGID_6_);stroke-width:0.9272;stroke-miterlimit:10;}
	.st9{fill:none;stroke:url(#SVGID_7_);stroke-width:0.9272;stroke-miterlimit:10;}
	.st10{fill:url(#SVGID_8_);}
	.st11{fill:none;stroke:url(#SVGID_9_);stroke-width:0.9272;stroke-miterlimit:10;}
</style>
<circle class="st0" cx="190.8" cy="191.4" r="187.3"/>
<g>
	<path class="st1" d="M31.9,238.8c-4.6,0-8.1-1.5-10.5-4.4s-3.5-6.1-3.5-9.5s1.2-6.6,3.5-9.5s5.8-4.4,10.5-4.4c2.3,0,4,0.3,5,0.8
		s2.2,0.8,3.6,0.8l0.8,4.7h-1c-1.5-3.7-4.3-5.5-8.4-5.5c-7,0-10.5,4.4-10.5,13.1S24.9,238,31.9,238c4.5,0,7.8-1.8,9.8-5.3l0.2,0.4
		C40,236.9,36.7,238.8,31.9,238.8z"/>
	<path class="st1" d="M55.7,226.1c0-0.5-0.3-0.9-0.8-1.2c-0.5-0.2-1.3-0.4-2.3-0.5v-0.6c1.1-0.1,2.1-0.5,3-1c0.9-0.5,1.5-1,1.9-1.5
		h0.6v4.7c1.1-3.3,2.6-4.9,4.4-4.9s2.8,0.5,2.8,1.6s-0.2,1.7-0.7,1.9s-1,0.1-1.6-0.3s-1.3-0.6-2.2-0.7s-1.7,1.1-2.7,3.4v9
		c0,1,1,1.4,3.1,1.4v0.6c-1.4,0-2.5,0-3.2-0.1s-1.4-0.1-2.2,0s-1.8,0.1-3.2,0.1v-0.6c2.1,0,3.1-0.5,3.1-1.4V226.1z"/>
	<path class="st1" d="M77.6,223.9c-0.4-1-1.6-1.4-3.7-1.4v-0.6c1.5,0,2.6,0,3.4,0.1s1.5,0.1,2.3,0s1.9-0.1,3.4-0.1v0.6
		c-2.1,0-2.9,0.5-2.5,1.4l4.9,11.9l4.8-11.9c0.4-1-0.5-1.4-2.5-1.4v-0.6c1.2,0,2.1,0,2.7,0.1s1.2,0.1,1.8,0s1.5-0.1,2.7-0.1v0.6
		c-2.1,0-3.3,0.5-3.6,1.4l-8.7,21.5c-0.6,1.5-1.3,2.4-1.9,2.7s-1.3,0.4-1.9,0.4c-0.5,0-1.1-0.2-1.5-0.5s-0.5-0.9-0.2-1.7
		s1.1-1,2.3-0.7c1.2,0.4,2.2-0.2,3-1.8l2-4.9L77.6,223.9z"/>
	<path class="st1" d="M104.7,237.6v-4.7h0.8c0.3,2.2,1.2,3.6,2.7,4.3c0.9,0.4,1.8,0.6,2.6,0.6c0.5,0,1.1-0.1,1.6-0.3
		c1.3-0.5,1.9-1.5,1.9-3c0-1.5-1.6-2.7-4.8-3.6c-3.2-0.9-4.8-2.2-4.8-4.2s0.4-3.3,1.3-4.1s2.3-1.2,4.2-1.2s3.2,0.2,3.9,0.6
		s1.3,0.6,1.8,0.6v3.7h-0.8c-0.3-2.2-1.1-3.5-2.6-3.9c-0.5-0.1-1.2-0.2-2.2-0.2s-1.6,0-1.8,0.1c-1.2,0.3-1.8,1.2-1.8,2.6
		c0,1.4,1.6,2.5,4.8,3.4s4.8,2.3,4.8,4.4s-0.5,3.6-1.6,4.5s-2.4,1.4-4.1,1.4s-3-0.2-3.8-0.5S105.2,237.6,104.7,237.6z"/>
	<path class="st1" d="M127.2,223.2v-1c1.4,0,2.5-0.5,3.4-1.5s1.5-2.4,1.9-4h0.8v5.1h4.7v1.4h-4.7v11.8c0,1.3,0.6,1.9,1.8,1.9
		s2.4-0.5,3.4-1.5l0.5,0.5c-1.2,1.8-2.6,2.7-4.1,2.7s-2.6-0.3-3.3-1s-1-1.9-1-3.5v-10.8H127.2z"/>
	<path class="st1" d="M149.5,235.5c0-2.1,3.1-4.2,9.2-6.6v-3.2c0-2.2-0.9-3.3-2.7-3.3s-3,1-3.6,2.9s-1.3,2.9-1.9,2.9s-1-0.3-1-1
		s0.9-1.8,2.6-3.5s3.2-2.5,4.6-2.5s2.5,0.4,3.3,1.3c0.8,0.9,1.2,1.9,1.2,3.1v11.2c0,0.8,0.8,0.6,2.3-0.6l0.4,0.4
		c-0.7,1.4-1.8,2.1-3.1,2.1c-1.1,0-1.8-0.6-2.1-1.8c-1.4,1.2-3.1,1.8-5.3,1.8C150.9,238.6,149.5,237.6,149.5,235.5z M152.2,234.9
		c0,1.6,0.8,2.5,2.3,2.5s2.9-0.5,4.3-1.4v-6.2C154.4,231.6,152.2,233.3,152.2,234.9z"/>
	<path class="st1" d="M176.6,214.2c0-1-0.3-1.5-1-1.7s-1.3-0.3-2.1-0.3v-0.6c1-0.1,1.9-0.4,2.7-0.7s1.5-0.8,2.2-1.3h0.6v26.7
		c0,1,1,1.4,3.1,1.4v0.6c-1.4,0-2.5,0-3.2-0.1c-0.7-0.1-1.4-0.1-2.2,0c-0.7,0.1-1.8,0.1-3.2,0.1v-0.6c2.1,0,3.1-0.5,3.1-1.4V214.2z"
		/>
	<path class="st1" d="M214.7,213.6c0-1-1.4-1.4-4.1-1.4v-0.6l4.5-0.1c10.7-0.6,16,1.5,16,6.3c0,3.8-2.3,5.8-7,6.2c6,0.3,9,2.7,9,7.2
		c0,5.5-5.5,7.9-16.4,7.3l-6.2-0.1v-0.6c2.7,0,4.1-0.5,4.1-1.4V213.6z M217.8,223.3h2.9c4.9,0,7.4-1.9,7.4-5.6
		c0-3.7-3.4-5.6-10.3-5.5V223.3z M217.8,237.4c8.2,0,12.3-2.2,12.3-6.5c0-4.3-3.1-6.5-9.3-6.5h-3V237.4z"/>
	<path class="st1" d="M247.1,236.3c-1.5-1.7-2.3-3.8-2.3-6.3c0-2.7,0.9-4.9,2.7-6.5s3.6-2.4,5.3-2.4c2.3,0,4.1,0.6,5.4,1.9
		s1.9,2.9,1.9,4.8h-12.9c0,3,0.6,5.2,1.7,6.5s2.4,1.9,3.8,1.9c2.1,0,4.3-1.1,6.8-3.3l0.6,0.4c-2.3,3.6-4.9,5.3-7.8,5.3
		C250.4,238.8,248.6,238,247.1,236.3z M257.6,227.1c0-1.4-0.4-2.6-1.3-3.6c-0.9-1-1.9-1.5-3-1.5c-2.1,0-3.6,0.5-4.5,1.6
		s-1.4,2.3-1.4,3.5H257.6z"/>
	<path class="st1" d="M271.9,235.5c0-2.1,3.1-4.2,9.2-6.6v-3.2c0-2.2-0.9-3.3-2.7-3.3s-3,1-3.6,2.9s-1.3,2.9-1.9,2.9s-1-0.3-1-1
		s0.9-1.8,2.6-3.5s3.2-2.5,4.6-2.5s2.5,0.4,3.3,1.3c0.8,0.9,1.2,1.9,1.2,3.1v11.2c0,0.8,0.8,0.6,2.3-0.6l0.4,0.4
		c-0.7,1.4-1.8,2.1-3.1,2.1c-1.1,0-1.8-0.6-2.1-1.8c-1.4,1.2-3.1,1.8-5.3,1.8C273.2,238.6,271.9,237.6,271.9,235.5z M274.6,234.9
		c0,1.6,0.8,2.5,2.3,2.5s2.9-0.5,4.3-1.4v-6.2C276.8,231.6,274.6,233.3,274.6,234.9z"/>
	<path class="st1" d="M298.6,225.7c0-1-0.3-1.5-0.8-1.7c-0.5-0.2-1.1-0.3-1.9-0.3V223c1-0.1,1.8-0.3,2.4-0.5
		c0.6-0.2,1.3-0.6,2.1-1.1h0.6v9.6c0,2.5,0.4,4,1.2,4.7s2,1,3.5,1c1.4,0,2.7-1,4.1-2.9v-8.2c0-1-0.3-1.5-0.8-1.7
		c-0.5-0.2-1.1-0.3-1.9-0.3V223c1-0.1,1.8-0.3,2.4-0.5c0.6-0.2,1.3-0.6,2.1-1.1h0.6v13.9c0,1.1,1,1.6,3.1,1.6v0.6
		c-1,0.1-1.9,0.3-2.7,0.4c-0.8,0.1-1.5,0.4-2.2,0.8h-0.6v-3.9c-1.8,2.6-3.7,3.9-5.7,3.9c-1.4,0-2.6-0.4-3.8-1.3s-1.7-2.4-1.7-4.4
		V225.7z"/>
	<path class="st1" d="M324.6,223.2v-1c1.4,0,2.5-0.5,3.4-1.5s1.5-2.4,1.9-4h0.8v5.1h4.7v1.4h-4.7v11.8c0,1.3,0.6,1.9,1.8,1.9
		s2.4-0.5,3.4-1.5l0.5,0.5c-1.2,1.8-2.6,2.7-4.1,2.7s-2.6-0.3-3.3-1s-1-1.9-1-3.5v-10.8H324.6z"/>
	<path class="st1" d="M348.4,223.9c-0.4-1-1.6-1.4-3.7-1.4v-0.6c1.5,0,2.6,0,3.4,0.1s1.5,0.1,2.3,0s1.9-0.1,3.4-0.1v0.6
		c-2.1,0-2.9,0.5-2.5,1.4l4.9,11.9l4.8-11.9c0.4-1-0.5-1.4-2.5-1.4v-0.6c1.2,0,2.1,0,2.7,0.1c0.6,0.1,1.2,0.1,1.8,0
		c0.6-0.1,1.5-0.1,2.7-0.1v0.6c-2.1,0-3.3,0.5-3.6,1.4l-8.7,21.5c-0.6,1.5-1.3,2.4-1.9,2.7s-1.3,0.4-1.9,0.4c-0.5,0-1.1-0.2-1.5-0.5
		s-0.5-0.9-0.2-1.7s1.1-1,2.3-0.7c1.2,0.4,2.2-0.2,3-1.8l2-4.9L348.4,223.9z"/>
</g>
<g>
</g>
<g>
</g>
<g>
	<g>
		<g>
			<path class="st2" d="M71.7,150.6c0.1,1,0.5,1.7,1.1,1.9c0.6,0.2,1.2,0.2,1.7,0c0.6-0.2,0.8-0.7,0.8-1.4s-0.7-1.2-2-1.6
				s-2-0.9-2-1.7c0-0.8,0.2-1.3,0.5-1.7c0.3-0.4,0.9-0.6,1.7-0.6c0.6,0,1.1,0.1,1.4,0.3c0.3,0.2,0.6,0.3,0.8,0.3v1.5h-0.3
				c-0.1-0.9-0.4-1.5-1-1.7c-0.6-0.2-1.1-0.2-1.6,0s-0.8,0.6-0.8,1.2s0.7,1.1,2,1.5c1.3,0.4,2,0.9,2,1.7s-0.2,1.4-0.6,1.8
				s-0.9,0.6-1.6,0.6c-0.7,0-1.2-0.1-1.5-0.3c-0.3-0.2-0.6-0.3-0.8-0.3v-1.7H71.7z"/>
			<path class="st2" d="M84.1,152.8v-0.2c0.7,0,1.1-0.1,1.1-0.4v-6.2h-1.3c-0.4,0-0.7,0.1-0.9,0.2s-0.3,0.4-0.5,0.9h-0.2
				c0.1-0.5,0.2-1,0.2-1.3h6.4c0,0.4,0.1,0.8,0.2,1.3h-0.2c-0.1-0.4-0.3-0.7-0.5-0.9s-0.5-0.2-0.9-0.2H86v6.2c0,0.3,0.4,0.4,1.1,0.4
				v0.2c-0.5,0-0.9,0-1.1,0c-0.2,0-0.5,0-0.7,0C85,152.8,84.6,152.8,84.1,152.8z"/>
			<path class="st2" d="M100.6,146.4c0-0.3-0.4-0.4-1.1-0.4v-0.2c0.4,0,0.7,0,0.9,0c0.2,0,0.4,0,0.6,0c0.2,0,0.5,0,0.9,0v0.2
				c-0.7,0-1.1,0.1-1.1,0.4v4.3c0,0.8-0.3,1.4-0.8,1.7s-1.1,0.6-1.8,0.6s-1.3-0.2-1.9-0.5s-0.8-0.9-0.8-1.8v-4.3
				c0-0.3-0.4-0.4-1.1-0.4v-0.2c0.5,0,0.9,0,1.1,0c0.2,0,0.5,0,0.7,0c0.2,0,0.6,0,1.1,0v0.2c-0.7,0-1.1,0.1-1.1,0.4v4.3
				c0,0.7,0.2,1.2,0.5,1.5c0.3,0.3,0.8,0.5,1.5,0.5s1.1-0.2,1.5-0.5c0.3-0.3,0.5-0.8,0.5-1.5V146.4z"/>
			<path class="st2" d="M108,152.8v-0.2c0.7,0,1.1-0.1,1.1-0.4v-5.9c0-0.3-0.4-0.4-1.1-0.4v-0.2c1.8-0.1,3.2,0,4.2,0.1
				c1.8,0.4,2.7,1.6,2.7,3.4s-0.9,2.9-2.7,3.4C111.2,152.9,109.8,152.9,108,152.8z M109.9,152.6c2.9,0,4.3-1.1,4.3-3.3
				s-1.4-3.3-4.3-3.3V152.6z"/>
			<path class="st2" d="M122.2,146.4c0-0.3-0.4-0.4-1.1-0.4v-0.2c0.5,0,0.9,0,1.1,0c0.2,0,0.5,0,0.7,0c0.2,0,0.6,0,1.1,0v0.2
				c-0.7,0-1.1,0.1-1.1,0.4v5.9c0,0.3,0.4,0.4,1.1,0.4v0.2c-0.5,0-0.9,0-1.1,0c-0.2,0-0.5,0-0.7,0c-0.2,0-0.6,0-1.1,0v-0.2
				c0.7,0,1.1-0.1,1.1-0.4V146.4z"/>
			<path class="st2" d="M133.8,153c-1.1,0-1.9-0.3-2.6-1s-0.9-1.6-0.9-2.6s0.3-2,0.9-2.6s1.5-1,2.6-1s1.9,0.3,2.6,1s0.9,1.6,0.9,2.6
				s-0.3,2-0.9,2.6S134.9,153,133.8,153z M133.8,152.7c0.8,0,1.4-0.3,1.9-1c0.5-0.6,0.7-1.4,0.7-2.4c0-1-0.2-1.8-0.7-2.4
				c-0.5-0.6-1.1-1-1.9-1s-1.4,0.3-1.9,1c-0.5,0.6-0.7,1.5-0.7,2.4c0,1,0.2,1.8,0.7,2.4C132.4,152.4,133,152.7,133.8,152.7z"/>
		</g>
		<g>
			<linearGradient id="SVGID_1_" gradientUnits="userSpaceOnUse" x1="133.1528" y1="133.5268" x2="133.1528" y2="133.5268">
				<stop  offset="0" style="stop-color:#F7DE7C"/>
				<stop  offset="0.1838" style="stop-color:#FFF3A5"/>
				<stop  offset="0.3743" style="stop-color:#FFF3A5"/>
				<stop  offset="0.6711" style="stop-color:#F7DE7C"/>
				<stop  offset="0.7894" style="stop-color:#E0BF61"/>
				<stop  offset="1" style="stop-color:#B27F2B"/>
			</linearGradient>
			<path class="st3" d="M133.2,133.5"/>
			<linearGradient id="SVGID_2_" gradientUnits="userSpaceOnUse" x1="87.931" y1="133.5268" x2="87.931" y2="133.5268">
				<stop  offset="0" style="stop-color:#F7DE7C"/>
				<stop  offset="0.1838" style="stop-color:#FFF3A5"/>
				<stop  offset="0.3743" style="stop-color:#FFF3A5"/>
				<stop  offset="0.6711" style="stop-color:#F7DE7C"/>
				<stop  offset="0.7894" style="stop-color:#E0BF61"/>
				<stop  offset="1" style="stop-color:#B27F2B"/>
			</linearGradient>
			<path class="st4" d="M87.9,133.5"/>
			<linearGradient id="SVGID_3_" gradientUnits="userSpaceOnUse" x1="63.6094" y1="165.785" x2="153.5459" y2="165.785">
				<stop  offset="0" style="stop-color:#F7DE7C"/>
				<stop  offset="0.1838" style="stop-color:#FFF3A5"/>
				<stop  offset="0.3743" style="stop-color:#FFF3A5"/>
				<stop  offset="0.6711" style="stop-color:#F7DE7C"/>
				<stop  offset="0.7894" style="stop-color:#E0BF61"/>
				<stop  offset="1" style="stop-color:#B27F2B"/>
			</linearGradient>
			<line class="st5" x1="63.6" y1="165.8" x2="153.5" y2="165.8"/>
		</g>
	</g>
	<g>
		<g>
			<path class="st2" d="M258.1,146.4c0-0.3-0.4-0.4-1.1-0.4v-0.2c0.4,0,0.7,0,0.9,0c0.2,0,0.4,0,0.6,0c0.2,0,0.5,0,0.9,0v0.2
				c-0.7,0-1.1,0.1-1.1,0.4v4.3c0,0.8-0.3,1.4-0.8,1.7s-1.1,0.6-1.8,0.6c-0.7,0-1.3-0.2-1.9-0.5c-0.5-0.3-0.8-0.9-0.8-1.8v-4.3
				c0-0.3-0.4-0.4-1.1-0.4v-0.2c0.5,0,0.9,0,1.1,0s0.5,0,0.7,0s0.6,0,1.1,0v0.2c-0.7,0-1.1,0.1-1.1,0.4v4.3c0,0.7,0.2,1.2,0.5,1.5
				c0.3,0.3,0.8,0.5,1.5,0.5c0.6,0,1.1-0.2,1.5-0.5c0.3-0.3,0.5-0.8,0.5-1.5V146.4z"/>
			<path class="st2" d="M266.5,146.4c0-0.3-0.4-0.4-1.1-0.4v-0.2l1.3,0c2.9-0.2,4.3,0.5,4.3,1.9c0,1.1-0.5,1.7-1.6,1.9
				c0.6,0.9,1.1,1.6,1.5,2.1s0.9,0.8,1.5,0.9v0.2c-0.5,0-0.9,0.1-1.2,0.1s-0.6-0.3-1.1-0.8s-1-1.3-1.6-2.3c-0.6,0-1,0-1.4,0v2.6
				c0,0.3,0.4,0.4,1.1,0.4v0.2c-0.5,0-0.9,0-1.1,0s-0.5,0-0.7,0s-0.6,0-1.1,0v-0.2c0.7,0,1.1-0.1,1.1-0.4V146.4z M267.3,149.6
				c2,0,3-0.6,3-1.8s-1-1.8-3-1.8V149.6z"/>
			<path class="st2" d="M282,153c-1.1,0-1.9-0.3-2.6-1c-0.6-0.7-0.9-1.6-0.9-2.6s0.3-2,0.9-2.6c0.6-0.7,1.5-1,2.6-1s1.9,0.3,2.6,1
				c0.6,0.7,0.9,1.6,0.9,2.6s-0.3,2-0.9,2.6C283.9,152.7,283.1,153,282,153z M282,152.7c0.8,0,1.4-0.3,1.9-1
				c0.5-0.6,0.7-1.4,0.7-2.4c0-1-0.2-1.8-0.7-2.4c-0.5-0.6-1.1-1-1.9-1s-1.4,0.3-1.9,1c-0.5,0.6-0.7,1.5-0.7,2.4
				c0,1,0.2,1.8,0.7,2.4C280.5,152.4,281.2,152.7,282,152.7z"/>
			<path class="st2" d="M291.7,152.8v-0.2c0.7,0,1.1-0.1,1.1-0.4v-5.9c0-0.3-0.4-0.4-1.1-0.4v-0.2c1.8-0.1,3.2,0,4.2,0.1
				c1.8,0.4,2.7,1.6,2.7,3.4s-0.9,2.9-2.7,3.4C294.9,152.9,293.5,152.9,291.7,152.8z M293.5,152.6c2.9,0,4.3-1.1,4.3-3.3
				s-1.4-3.3-4.3-3.3V152.6z"/>
			<path class="st2" d="M306.7,152.8v-0.2c0.7,0,1.1-0.1,1.1-0.4v-2.6l-2.1-3.3c-0.2-0.3-0.6-0.4-1.3-0.4v-0.2c0.5,0,0.9,0,1.1,0
				s0.5,0,0.8,0s0.6,0,1.1,0v0.2c-0.7,0-1,0.1-0.8,0.4l1.9,2.7l1.7-2.7c0.2-0.3-0.1-0.4-0.8-0.4v-0.2c0.5,0,0.8,0,1,0
				c0.2,0,0.3,0,0.5,0s0.5,0,1,0v0.2c-0.7,0-1.2,0.1-1.3,0.4l-1.8,3v3c0,0.3,0.4,0.4,1.1,0.4v0.2c-0.5,0-0.9,0-1.1,0s-0.5,0-0.7,0
				S307.2,152.8,306.7,152.8z"/>
		</g>
		<g>
			<linearGradient id="SVGID_4_" gradientUnits="userSpaceOnUse" x1="299.7268" y1="133.5268" x2="299.7268" y2="133.5268">
				<stop  offset="0" style="stop-color:#F7DE7C"/>
				<stop  offset="0.1838" style="stop-color:#FFF3A5"/>
				<stop  offset="0.3743" style="stop-color:#FFF3A5"/>
				<stop  offset="0.6711" style="stop-color:#F7DE7C"/>
				<stop  offset="0.7894" style="stop-color:#E0BF61"/>
				<stop  offset="1" style="stop-color:#B27F2B"/>
			</linearGradient>
			<path class="st6" d="M299.7,133.5"/>
			<linearGradient id="SVGID_5_" gradientUnits="userSpaceOnUse" x1="254.5051" y1="133.5268" x2="254.5051" y2="133.5268">
				<stop  offset="0" style="stop-color:#F7DE7C"/>
				<stop  offset="0.1838" style="stop-color:#FFF3A5"/>
				<stop  offset="0.3743" style="stop-color:#FFF3A5"/>
				<stop  offset="0.6711" style="stop-color:#F7DE7C"/>
				<stop  offset="0.7894" style="stop-color:#E0BF61"/>
				<stop  offset="1" style="stop-color:#B27F2B"/>
			</linearGradient>
			<path class="st7" d="M254.5,133.5"/>
			<linearGradient id="SVGID_6_" gradientUnits="userSpaceOnUse" x1="299.7268" y1="165.785" x2="299.7268" y2="165.785">
				<stop  offset="0" style="stop-color:#F7DE7C"/>
				<stop  offset="0.1838" style="stop-color:#FFF3A5"/>
				<stop  offset="0.3743" style="stop-color:#FFF3A5"/>
				<stop  offset="0.6711" style="stop-color:#F7DE7C"/>
				<stop  offset="0.7894" style="stop-color:#E0BF61"/>
				<stop  offset="1" style="stop-color:#B27F2B"/>
			</linearGradient>
			<path class="st8" d="M299.7,165.8"/>
			<linearGradient id="SVGID_7_" gradientUnits="userSpaceOnUse" x1="254.5051" y1="165.785" x2="254.5051" y2="165.785">
				<stop  offset="0" style="stop-color:#F7DE7C"/>
				<stop  offset="0.1838" style="stop-color:#FFF3A5"/>
				<stop  offset="0.3743" style="stop-color:#FFF3A5"/>
				<stop  offset="0.6711" style="stop-color:#F7DE7C"/>
				<stop  offset="0.7894" style="stop-color:#E0BF61"/>
				<stop  offset="1" style="stop-color:#B27F2B"/>
			</linearGradient>
			<path class="st9" d="M254.5,165.8"/>
		</g>
	</g>
	<linearGradient id="SVGID_8_" gradientUnits="userSpaceOnUse" x1="251.8865" y1="13.6695" x2="91.9107" y2="238.026">
		<stop  offset="0" style="stop-color:#B27F2B"/>
		<stop  offset="8.951748e-002" style="stop-color:#E0BF61"/>
		<stop  offset="0.1398" style="stop-color:#F7DE7C"/>
		<stop  offset="0.2581" style="stop-color:#FFF3A5"/>
		<stop  offset="0.3602" style="stop-color:#F7DE7C"/>
		<stop  offset="0.4892" style="stop-color:#B27F2B"/>
		<stop  offset="0.5684" style="stop-color:#E0BF61"/>
		<stop  offset="0.6129" style="stop-color:#F7DE7C"/>
		<stop  offset="0.7204" style="stop-color:#FFF3A5"/>
		<stop  offset="0.8387" style="stop-color:#F7DE7C"/>
		<stop  offset="1" style="stop-color:#B27F2B"/>
	</linearGradient>
	<path class="st10" d="M267.4,96.4C267.4,96.4,267.4,96.4,267.4,96.4c0.1-0.2,0.1-0.3,0.1-0.4c0,0,0,0,0-0.1c0-0.1,0-0.3-0.1-0.4
		c0,0,0-0.1,0-0.1c0,0,0-0.1,0-0.1c0-0.1-0.1-0.2-0.2-0.3c0,0,0,0,0,0l-18.6-24.2c-0.1-0.1-0.1-0.2-0.2-0.2c0,0,0,0,0,0
		c-0.1-0.1-0.2-0.2-0.3-0.2c0,0,0,0,0,0l-26.9-11.9c-0.2-0.1-0.4-0.1-0.6-0.1h-57.2c-0.2,0-0.4,0-0.6,0.1L137,70.4c0,0,0,0,0,0
		c-0.1,0-0.2,0.1-0.3,0.2c0,0,0,0-0.1,0c-0.1,0.1-0.2,0.2-0.2,0.3l-16.9,24.2c0,0,0,0,0,0c0,0.1-0.1,0.1-0.1,0.2c0,0,0,0.1-0.1,0.2
		c0,0,0,0.1,0,0.1c0,0.1-0.1,0.3-0.1,0.4c0,0,0,0,0,0.1c0,0.1,0,0.2,0.1,0.4c0,0,0,0,0,0.1c0,0.1,0.1,0.3,0.2,0.4c0,0,0,0,0,0
		l72.6,99.3c0,0,0,0,0,0.1c0,0,0.1,0.1,0.1,0.1c0.1,0.1,0.1,0.1,0.2,0.2c0,0,0.1,0.1,0.1,0.1c0.1,0,0.2,0.1,0.2,0.1c0,0,0.1,0,0.1,0
		c0.1,0,0.2,0.1,0.4,0.1c0,0,0,0,0,0c0,0,0,0,0,0c0.1,0,0.3,0,0.4-0.1c0,0,0.1,0,0.1,0c0.1,0,0.2-0.1,0.2-0.1c0,0,0.1-0.1,0.1-0.1
		c0.1,0,0.1-0.1,0.2-0.2c0,0,0.1-0.1,0.1-0.1c0,0,0,0,0-0.1l72.6-99.3c0,0,0,0,0,0C267.3,96.7,267.4,96.6,267.4,96.4z M138.2,73.6
		l23.3,10.9l-6.6,25.9l-31.9-15L138.2,73.6z M246.9,73.6l16.8,21.8l-31.5,15l-9.8-26L246.9,73.6z M219.4,85.2l9.7,25.8h-71.3
		l6.6-25.8H219.4z M229,114l-35.6,77.7L158.3,114H229z M154.8,113.6l31.3,69.1l-60.6-82.9L154.8,113.6z M232.5,113.6l28.8-13.7
		l-60.4,82.6L232.5,113.6z M163.6,61.3h56.6l23.5,10.4l-23.5,10.4h-56.6l-22.4-10.4L163.6,61.3z"/>
</g>
<linearGradient id="SVGID_9_" gradientUnits="userSpaceOnUse" x1="236.6853" y1="165.785" x2="326.6219" y2="165.785">
	<stop  offset="0" style="stop-color:#F7DE7C"/>
	<stop  offset="0.1838" style="stop-color:#FFF3A5"/>
	<stop  offset="0.3743" style="stop-color:#FFF3A5"/>
	<stop  offset="0.6711" style="stop-color:#F7DE7C"/>
	<stop  offset="0.7894" style="stop-color:#E0BF61"/>
	<stop  offset="1" style="stop-color:#B27F2B"/>
</linearGradient>
<line class="st11" x1="236.7" y1="165.8" x2="326.6" y2="165.8"/>
<g>
	<path class="st2" d="M70.2,266c-0.1-0.3-0.5-0.5-1.2-0.5v-0.2c0.4,0,0.8,0,1,0s0.4,0,0.7,0s0.5,0,1,0v0.2c-0.4,0-0.6,0.2-0.5,0.5
		l1.6,4l1.1-2.6l-0.6-1.3c-0.1-0.3-0.4-0.5-0.8-0.5v-0.2c0.5,0,0.9,0,1.1,0s0.5,0,0.8,0s0.6,0,1.1,0v0.2c-0.9,0-1.3,0.2-1.2,0.5
		l1.7,3.8l1.6-3.8c0.1-0.3-0.3-0.5-1.2-0.5v-0.2c0.5,0,0.8,0,1,0s0.5,0,0.7,0s0.6,0,1,0v0.2c-0.7,0-1.1,0.2-1.2,0.5l-2,5h-0.3
		l-1.4-3.2l-1.3,3.2h-0.3L70.2,266z"/>
	<path class="st2" d="M86.9,266c-0.1-0.3-0.5-0.5-1.2-0.5v-0.2c0.4,0,0.8,0,1,0s0.4,0,0.7,0s0.5,0,1,0v0.2c-0.4,0-0.6,0.2-0.5,0.5
		l1.6,4l1.1-2.6l-0.6-1.3c-0.1-0.3-0.4-0.5-0.8-0.5v-0.2c0.5,0,0.9,0,1.1,0s0.5,0,0.8,0s0.6,0,1.1,0v0.2c-0.9,0-1.3,0.2-1.2,0.5
		l1.7,3.8l1.6-3.8c0.1-0.3-0.3-0.5-1.2-0.5v-0.2c0.5,0,0.8,0,1,0s0.5,0,0.7,0s0.6,0,1,0v0.2c-0.7,0-1.1,0.2-1.2,0.5l-2,5h-0.3
		l-1.4-3.2l-1.3,3.2h-0.3L86.9,266z"/>
	<path class="st2" d="M103.5,266c-0.1-0.3-0.5-0.5-1.2-0.5v-0.2c0.4,0,0.8,0,1,0s0.4,0,0.7,0s0.5,0,1,0v0.2c-0.4,0-0.6,0.2-0.5,0.5
		l1.6,4l1.1-2.6l-0.6-1.3c-0.1-0.3-0.4-0.5-0.8-0.5v-0.2c0.5,0,0.9,0,1.1,0s0.5,0,0.8,0s0.6,0,1.1,0v0.2c-0.9,0-1.3,0.2-1.2,0.5
		l1.7,3.8l1.6-3.8c0.1-0.3-0.3-0.5-1.2-0.5v-0.2c0.5,0,0.8,0,1,0s0.5,0,0.7,0s0.6,0,1,0v0.2c-0.7,0-1.1,0.2-1.2,0.5l-2,5h-0.3
		l-1.4-3.2L106,271h-0.3L103.5,266z"/>
	<path class="st2" d="M118.4,270.8c-0.1-0.1-0.2-0.3-0.2-0.5s0.1-0.3,0.2-0.5s0.3-0.2,0.5-0.2s0.3,0.1,0.5,0.2s0.2,0.3,0.2,0.5
		s-0.1,0.3-0.2,0.5s-0.3,0.2-0.5,0.2S118.6,271,118.4,270.8z"/>
	<path class="st2" d="M128.7,270.2c-0.5-0.6-0.8-1.3-0.8-2.2c0-0.9,0.3-1.6,0.9-2.1s1.2-0.8,1.8-0.8c0.8,0,1.3,0.2,1.7,0.5
		s0.4,0.6,0.2,0.8s-0.5,0.1-0.8-0.3s-0.6-0.6-1-0.6c-0.7,0-1.2,0.3-1.5,0.8s-0.4,1.2-0.4,1.8s0.2,1.2,0.6,1.6s0.8,0.6,1.3,0.6
		c0.7,0,1.4-0.4,2.2-1.2l0.2,0.1c-0.8,1.2-1.6,1.8-2.6,1.8C129.7,271,129.2,270.7,128.7,270.2z"/>
	<path class="st2" d="M141.7,266.8c0-0.2-0.1-0.3-0.3-0.4c-0.2-0.1-0.4-0.1-0.8-0.2V266c0.4,0,0.7-0.2,1-0.3
		c0.3-0.2,0.5-0.3,0.6-0.5h0.2v1.6c0.4-1.1,0.9-1.6,1.5-1.6s0.9,0.2,0.9,0.5s-0.1,0.6-0.2,0.6s-0.3,0-0.5-0.1s-0.4-0.2-0.7-0.2
		s-0.6,0.4-0.9,1.1v3c0,0.3,0.3,0.5,1,0.5v0.2c-0.5,0-0.8,0-1.1,0s-0.5,0-0.7,0s-0.6,0-1.1,0v-0.2c0.7,0,1-0.2,1-0.5V266.8z"/>
	<path class="st2" d="M153.2,266c-0.1-0.3-0.5-0.5-1.2-0.5v-0.2c0.5,0,0.9,0,1.1,0s0.5,0,0.8,0s0.6,0,1.1,0v0.2
		c-0.7,0-1,0.2-0.8,0.5l1.6,4l1.6-4c0.1-0.3-0.2-0.5-0.8-0.5v-0.2c0.4,0,0.7,0,0.9,0s0.4,0,0.6,0s0.5,0,0.9,0v0.2
		c-0.7,0-1.1,0.2-1.2,0.5l-2.9,7.2c-0.2,0.5-0.4,0.8-0.6,0.9s-0.4,0.1-0.6,0.1c-0.2,0-0.4-0.1-0.5-0.2s-0.2-0.3-0.1-0.6
		s0.4-0.3,0.8-0.2c0.4,0.1,0.7-0.1,1-0.6l0.7-1.6L153.2,266z"/>
	<path class="st2" d="M166.4,270.6V269h0.3c0.1,0.7,0.4,1.2,0.9,1.4c0.3,0.1,0.6,0.2,0.9,0.2c0.2,0,0.4,0,0.5-0.1
		c0.4-0.2,0.6-0.5,0.6-1c0-0.5-0.5-0.9-1.6-1.2c-1.1-0.3-1.6-0.7-1.6-1.4s0.1-1.1,0.4-1.4s0.8-0.4,1.4-0.4s1.1,0.1,1.3,0.2
		s0.4,0.2,0.6,0.2v1.2h-0.3c-0.1-0.7-0.4-1.2-0.9-1.3c-0.2,0-0.4-0.1-0.7-0.1s-0.5,0-0.6,0c-0.4,0.1-0.6,0.4-0.6,0.9
		c0,0.5,0.5,0.8,1.6,1.1c1.1,0.3,1.6,0.8,1.6,1.5s-0.2,1.2-0.5,1.5s-0.8,0.5-1.4,0.5s-1-0.1-1.3-0.2S166.6,270.6,166.4,270.6z"/>
	<path class="st2" d="M178.1,265.8v-0.3c0.5,0,0.8-0.2,1.1-0.5s0.5-0.8,0.6-1.3h0.3v1.7h1.6v0.5h-1.6v3.9c0,0.4,0.2,0.6,0.6,0.6
		s0.8-0.2,1.1-0.5l0.2,0.2c-0.4,0.6-0.9,0.9-1.4,0.9s-0.9-0.1-1.1-0.3s-0.3-0.6-0.3-1.2v-3.6H178.1z"/>
	<path class="st2" d="M189.8,269.9c0-0.7,1-1.4,3.1-2.2v-1.1c0-0.7-0.3-1.1-0.9-1.1s-1,0.3-1.2,1s-0.4,1-0.6,1s-0.3-0.1-0.3-0.3
		s0.3-0.6,0.9-1.2s1.1-0.8,1.5-0.8s0.8,0.1,1.1,0.4c0.3,0.3,0.4,0.6,0.4,1v3.7c0,0.3,0.3,0.2,0.8-0.2l0.1,0.1
		c-0.2,0.5-0.6,0.7-1,0.7c-0.4,0-0.6-0.2-0.7-0.6c-0.5,0.4-1,0.6-1.8,0.6C190.2,271,189.8,270.6,189.8,269.9z M190.7,269.7
		c0,0.5,0.3,0.8,0.8,0.8c0.5,0,1-0.2,1.4-0.5V268C191.4,268.6,190.7,269.2,190.7,269.7z"/>
	<path class="st2" d="M203,262.8c0-0.3-0.1-0.5-0.3-0.6c-0.2-0.1-0.5-0.1-0.7-0.1v-0.2c0.3,0,0.6-0.1,0.9-0.2
		c0.3-0.1,0.5-0.3,0.7-0.4h0.2v8.9c0,0.3,0.3,0.5,1,0.5v0.2c-0.5,0-0.8,0-1.1,0c-0.2,0-0.5,0-0.7,0c-0.2,0-0.6,0-1.1,0v-0.2
		c0.7,0,1-0.2,1-0.5V262.8z"/>
	<path class="st2" d="M212.9,262.8c0-0.3-0.1-0.5-0.3-0.6c-0.2-0.1-0.5-0.1-0.7-0.1v-0.2c0.3,0,0.6-0.1,0.9-0.2
		c0.3-0.1,0.5-0.3,0.7-0.4h0.2v4.6c0.5-0.5,1.1-0.7,1.9-0.7s1.4,0.3,1.9,0.8s0.8,1.2,0.8,2.2s-0.3,1.6-0.8,2.2s-1.2,0.8-1.9,0.8
		s-1.5-0.2-2-0.5c-0.1,0.1-0.3,0.3-0.5,0.5h-0.2V262.8z M213.7,269.5c0,0.3,0.2,0.5,0.5,0.8s0.8,0.4,1.3,0.4s1-0.3,1.3-0.8
		s0.5-1.1,0.5-1.7c0-0.9-0.3-1.6-0.8-2.1s-1-0.7-1.5-0.6s-0.9,0.2-1.4,0.5V269.5z"/>
	<path class="st2" d="M227,270.2c-0.5-0.6-0.8-1.3-0.8-2.1c0-0.9,0.3-1.6,0.9-2.2s1.2-0.8,1.8-0.8c0.8,0,1.4,0.2,1.8,0.6
		s0.6,1,0.6,1.6h-4.3c0,1,0.2,1.7,0.6,2.2s0.8,0.6,1.3,0.6c0.7,0,1.4-0.4,2.3-1.1l0.2,0.1c-0.8,1.2-1.6,1.8-2.6,1.8
		C228.1,271,227.5,270.7,227,270.2z M230.5,267.1c0-0.5-0.1-0.9-0.4-1.2s-0.6-0.5-1-0.5c-0.7,0-1.2,0.2-1.5,0.5s-0.5,0.8-0.5,1.2
		H230.5z"/>
	<path class="st2" d="M239.5,269.9c0-0.7,1-1.4,3.1-2.2v-1.1c0-0.7-0.3-1.1-0.9-1.1s-1,0.3-1.2,1s-0.4,1-0.6,1s-0.3-0.1-0.3-0.3
		s0.3-0.6,0.9-1.2s1.1-0.8,1.5-0.8s0.8,0.1,1.1,0.4c0.3,0.3,0.4,0.6,0.4,1v3.7c0,0.3,0.3,0.2,0.8-0.2l0.1,0.1
		c-0.2,0.5-0.6,0.7-1,0.7c-0.4,0-0.6-0.2-0.7-0.6c-0.5,0.4-1,0.6-1.8,0.6C239.9,271,239.5,270.6,239.5,269.9z M240.4,269.7
		c0,0.5,0.3,0.8,0.8,0.8s1-0.2,1.4-0.5V268C241.1,268.6,240.4,269.2,240.4,269.7z"/>
	<path class="st2" d="M252.6,266.7c0-0.3-0.1-0.5-0.3-0.6c-0.2-0.1-0.4-0.1-0.6-0.1v-0.2c0.3,0,0.6-0.1,0.8-0.2
		c0.2-0.1,0.4-0.2,0.7-0.4h0.2v3.2c0,0.8,0.1,1.3,0.4,1.6s0.7,0.3,1.2,0.3c0.5,0,0.9-0.3,1.4-1v-2.7c0-0.3-0.1-0.5-0.3-0.6
		c-0.2-0.1-0.4-0.1-0.6-0.1v-0.2c0.3,0,0.6-0.1,0.8-0.2c0.2-0.1,0.4-0.2,0.7-0.4h0.2v4.6c0,0.4,0.3,0.5,1,0.5v0.2
		c-0.3,0-0.6,0.1-0.9,0.1c-0.3,0-0.5,0.1-0.7,0.3h-0.2v-1.3c-0.6,0.9-1.2,1.3-1.9,1.3c-0.5,0-0.9-0.1-1.3-0.4s-0.6-0.8-0.6-1.5
		V266.7z"/>
	<path class="st2" d="M265.5,265.8v-0.3c0.5,0,0.8-0.2,1.1-0.5s0.5-0.8,0.6-1.3h0.3v1.7h1.6v0.5h-1.6v3.9c0,0.4,0.2,0.6,0.6,0.6
		s0.8-0.2,1.1-0.5l0.2,0.2c-0.4,0.6-0.9,0.9-1.4,0.9s-0.9-0.1-1.1-0.3s-0.3-0.6-0.3-1.2v-3.6H265.5z"/>
	<path class="st2" d="M277.6,266c-0.1-0.3-0.5-0.5-1.2-0.5v-0.2c0.5,0,0.9,0,1.1,0s0.5,0,0.8,0s0.6,0,1.1,0v0.2
		c-0.7,0-1,0.2-0.8,0.5l1.6,4l1.6-4c0.1-0.3-0.2-0.5-0.8-0.5v-0.2c0.4,0,0.7,0,0.9,0c0.2,0,0.4,0,0.6,0c0.2,0,0.5,0,0.9,0v0.2
		c-0.7,0-1.1,0.2-1.2,0.5l-2.9,7.2c-0.2,0.5-0.4,0.8-0.6,0.9s-0.4,0.1-0.6,0.1c-0.2,0-0.4-0.1-0.5-0.2s-0.2-0.3-0.1-0.6
		s0.4-0.3,0.8-0.2c0.4,0.1,0.7-0.1,1-0.6l0.7-1.6L277.6,266z"/>
	<path class="st2" d="M289.4,270.8c-0.1-0.1-0.2-0.3-0.2-0.5s0.1-0.3,0.2-0.5s0.3-0.2,0.5-0.2s0.3,0.1,0.5,0.2s0.2,0.3,0.2,0.5
		s-0.1,0.3-0.2,0.5s-0.3,0.2-0.5,0.2S289.6,271,289.4,270.8z"/>
	<path class="st2" d="M300.5,265.8c0.5-0.5,1.1-0.7,1.9-0.7s1.4,0.3,1.9,0.8s0.8,1.2,0.8,2.2s-0.3,1.6-0.8,2.2s-1.2,0.8-1.9,0.8
		s-1.4-0.2-1.9-0.5v3.2c0,0.3,0.3,0.5,1,0.5v0.2c-0.5,0-0.8,0-1.1,0c-0.2,0-0.5,0-0.7,0c-0.2,0-0.6,0-1.1,0v-0.2c0.7,0,1-0.2,1-0.5
		v-7c0-0.2-0.1-0.3-0.3-0.4c-0.2-0.1-0.4-0.1-0.8-0.2V266c0.4,0,0.7-0.2,1-0.3c0.3-0.2,0.5-0.3,0.6-0.5h0.2V265.8z M300.5,269.5
		c0,0.3,0.2,0.5,0.5,0.8s0.8,0.4,1.3,0.4s1-0.3,1.3-0.8s0.5-1.1,0.5-1.7c0-0.9-0.3-1.6-0.8-2.1s-1-0.7-1.5-0.6s-0.9,0.2-1.4,0.5
		V269.5z"/>
	<path class="st2" d="M313.7,262.8c0-0.3-0.1-0.5-0.3-0.6c-0.2-0.1-0.5-0.1-0.7-0.1v-0.2c0.3,0,0.6-0.1,0.9-0.2
		c0.3-0.1,0.5-0.3,0.7-0.4h0.2v8.9c0,0.3,0.3,0.5,1,0.5v0.2c-0.5,0-0.8,0-1.1,0c-0.2,0-0.5,0-0.7,0c-0.2,0-0.6,0-1.1,0v-0.2
		c0.7,0,1-0.2,1-0.5V262.8z"/>
</g>
<g>
</g>
<g>
</g>
<g>
</g>
<g>
</g>
<g>
</g>
<g>
</g>
<g>
</g>
<g>
</g>
<g>
</g>
<g>
</g>
<g>
</g>
<g>
</g>
<g>
</g>
<g>
</g>
<g>
</g>
</svg>
